<svg xmlns="http://www.w3.org/2000/svg" viewBox="0 0 700 700" role="img" aria-labelledby="title desc">
  <title id="title">Perfume Rose Elegance</title>
  <desc id="desc">Frasco de perfume rosa com tampa dourada.</desc>
  <rect width="700" height="700" fill="#ffd6eb"/>
  <ellipse cx="350" cy="615" rx="180" ry="34" fill="#b5155e" opacity=".18"/>
  <rect x="262" y="115" width="176" height="92" rx="24" fill="#d9a441"/>
  <rect x="292" y="72" width="116" height="58" rx="14" fill="#2e0d27"/>
  <path d="M210 230h280v278c0 73-59 132-132 132h-16c-73 0-132-59-132-132V230z" fill="#fff" opacity=".45"/>
  <path d="M234 250h232v250c0 58-47 105-105 105h-22c-58 0-105-47-105-105V250z" fill="#e0217a"/>
  <path d="M280 326c48-36 93-36 140 0M292 458c38 28 78 28 116 0" fill="none" stroke="#fff" stroke-width="18" stroke-linecap="round" opacity=".72"/>
  <circle cx="350" cy="392" r="72" fill="#ffd6eb" opacity=".45"/>
  <text x="350" y="405" text-anchor="middle" font-family="Georgia, serif" font-size="44" font-weight="700" font-style="italic" fill="#fff">Rose</text>
</svg>
